# Blender v2.82 (sub 7) OBJ File: 'low_poly_pine.blend'
# www.blender.org
mtllib low_poly_pine.mtl
o Cylinder
v 0.000000 0.002644 -1.995369
v 1.410938 0.002644 -1.410938
v 1.995368 0.002644 -0.000000
v 1.410938 0.002644 1.410938
v 0.000000 0.002644 1.995368
v -1.410940 0.002644 1.410938
v -1.995368 0.002644 -0.000000
v -1.410940 0.002644 -1.410938
v 0.000000 3.515176 -1.108441
v 0.783786 3.515176 -0.783786
v 1.108441 3.515176 0.000000
v 0.783786 3.515176 0.783786
v 0.000000 3.515176 1.108441
v -0.783786 3.515176 0.783786
v -1.108441 3.515176 0.000000
v -0.783786 3.515176 -0.783786
v 0.000000 12.296506 -0.676953
v 0.000000 14.052773 -0.184942
v 0.130774 14.052773 -0.130774
v 0.478679 12.296506 -0.478679
v 0.184942 14.052773 0.000001
v 0.676954 12.296506 0.000000
v 0.130774 14.052773 0.130775
v 0.478679 12.296506 0.478680
v 0.000000 14.052773 0.184943
v 0.000000 12.296506 0.676954
v -0.130774 14.052773 0.130775
v -0.478679 12.296506 0.478680
v -0.184942 14.052773 0.000001
v -0.676954 12.296506 0.000000
v -0.130774 14.052773 -0.130774
v -0.478679 12.296506 -0.478679
v -1.823931 5.271442 -1.823931
v -0.801893 7.027707 -0.801893
v 0.000000 7.027707 -1.134047
v 0.000000 5.271442 -2.579426
v -2.579426 5.271442 0.000000
v -1.134048 7.027707 0.000000
v -1.823931 5.271442 1.823929
v -0.801893 7.027707 0.801893
v 0.000000 5.271442 2.579426
v 0.000000 7.027707 1.134048
v 1.823931 5.271442 1.823931
v 0.801893 7.027707 0.801893
v 2.579426 5.271442 0.000000
v 1.134048 7.027707 0.000000
v 1.823931 5.271442 -1.823931
v 0.801893 7.027707 -0.801893
v -1.053377 8.783973 -1.053375
v -0.466335 10.540239 -0.466334
v 0.000000 10.540239 -0.659495
v 0.000000 8.783973 -1.489700
v -1.489700 8.783973 0.000000
v -0.659495 10.540239 0.000000
v -1.053377 8.783973 1.053375
v -0.466335 10.540239 0.466335
v 0.000000 8.783973 1.489700
v 0.000000 10.540239 0.659495
v 1.053377 8.783973 1.053378
v 0.466335 10.540239 0.466335
v 1.489700 8.783973 0.000000
v 0.659495 10.540239 0.000000
v 1.053377 8.783973 -1.053377
v 0.466335 10.540239 -0.466334
v -0.726499 10.540239 -0.726499
v -0.298555 12.296506 -0.298553
v 0.000000 12.296506 -0.422219
v 0.000000 10.540239 -1.027427
v -1.027427 10.540239 0.000000
v -0.422220 12.296506 0.000000
v -0.726499 10.540239 0.726500
v -0.298555 12.296506 0.298554
v 0.000000 10.540239 1.027428
v 0.000000 12.296506 0.422220
v 0.726499 10.540239 0.726500
v 0.298553 12.296506 0.298554
v 1.027427 10.540239 0.000000
v 0.422220 12.296506 0.000000
v 0.726499 10.540239 -0.726499
v 0.298553 12.296506 -0.298553
v 0.000000 7.027707 -1.953605
v 0.000000 8.783973 -0.896772
v 0.634114 8.783973 -0.634113
v 1.381407 7.027707 -1.381407
v 0.896772 8.783973 0.000000
v 1.953605 7.027707 0.000000
v 0.634114 8.783973 0.634114
v 1.381407 7.027707 1.381407
v 0.000000 8.783973 0.896772
v 0.000000 7.027707 1.953606
v -0.634114 8.783973 0.634114
v -1.381407 7.027707 1.381407
v -0.896772 8.783973 0.000000
v -1.953605 7.027707 0.000000
v -0.634114 8.783973 -0.634113
v -1.381407 7.027707 -1.381407
v 0.000000 3.515176 -2.997748
v 0.000000 5.271442 -1.371325
v 0.969672 5.271442 -0.969672
v 2.119729 3.515176 -2.119729
v 1.371325 5.271442 0.000000
v 2.997748 3.515176 0.000000
v 0.969672 5.271442 0.969672
v 2.119729 3.515176 2.119729
v 0.000000 5.271442 1.371325
v 0.000000 3.515176 2.997748
v -0.969672 5.271442 0.969672
v -2.119729 3.515176 2.119726
v -1.371325 5.271442 0.000000
v -2.997748 3.515176 0.000000
v -0.969672 5.271442 -0.969672
v -2.119729 3.515176 -2.119726
vn 0.0000 -1.0000 0.0000
vn 0.3727 0.2272 -0.8997
vn 0.8997 0.2272 -0.3727
vn 0.8997 0.2272 0.3727
vn 0.3727 0.2272 0.8997
vn -0.3727 0.2272 0.8997
vn -0.8997 0.2272 0.3727
vn -0.8997 0.2272 -0.3727
vn -0.3727 0.2272 -0.8997
vn 0.3705 0.2506 -0.8944
vn 0.8944 0.2506 -0.3705
vn 0.8944 0.2506 0.3705
vn 0.3705 0.2506 0.8944
vn -0.3705 0.2506 0.8944
vn -0.8944 0.2506 0.3705
vn 0.0000 1.0000 -0.0000
vn -0.8944 0.2506 -0.3705
vn -0.3705 0.2506 -0.8944
vn -0.3046 0.6053 -0.7354
vn -0.7354 0.6053 -0.3046
vn -0.7354 0.6053 0.3046
vn -0.3046 0.6053 0.7354
vn 0.3046 0.6053 0.7354
vn 0.7354 0.6053 0.3046
vn 0.7354 0.6053 -0.3046
vn 0.3046 0.6053 -0.7354
vn -0.3507 0.4002 -0.8467
vn -0.8467 0.4002 -0.3507
vn -0.8467 0.4002 0.3507
vn -0.3507 0.4002 0.8467
vn 0.3507 0.4002 0.8467
vn 0.8467 0.4002 0.3507
vn 0.8467 0.4002 -0.3507
vn 0.3507 0.4002 -0.8467
vn -0.3647 0.3034 -0.8803
vn -0.8803 0.3034 -0.3647
vn -0.8803 0.3034 -0.3646
vn -0.8803 0.3034 0.3646
vn -0.8803 0.3034 0.3647
vn -0.3647 0.3034 0.8803
vn 0.3647 0.3034 0.8803
vn 0.8803 0.3034 0.3647
vn 0.8803 0.3034 -0.3647
vn 0.3647 0.3034 -0.8803
vn 0.3345 0.4859 -0.8075
vn 0.8075 0.4859 -0.3345
vn 0.8075 0.4859 0.3345
vn 0.3345 0.4859 0.8075
vn -0.3345 0.4859 0.8075
vn -0.8075 0.4859 0.3345
vn -0.8075 0.4859 -0.3345
vn -0.3345 0.4859 -0.8075
vn 0.2908 0.6501 -0.7020
vn 0.7020 0.6501 -0.2908
vn 0.7020 0.6501 0.2908
vn 0.2908 0.6501 0.7020
vn -0.2908 0.6501 0.7020
vn -0.7020 0.6501 0.2908
vn -0.7020 0.6501 -0.2908
vn -0.2908 0.6501 -0.7020
g Cylinder_Cylinder_Wood
usemtl Wood
s 1
f 8//1 2//1 4//1
f 9//2 2//2 1//2
f 10//3 3//3 2//3
f 11//4 4//4 3//4
f 4//5 13//5 5//5
f 13//6 6//6 5//6
f 6//7 15//7 7//7
f 15//8 8//8 7//8
f 16//9 1//9 8//9
f 8//1 1//1 2//1
f 2//1 3//1 4//1
f 4//1 5//1 6//1
f 6//1 7//1 4//1
f 7//1 8//1 4//1
f 9//2 10//2 2//2
f 10//3 11//3 3//3
f 11//4 12//4 4//4
f 4//5 12//5 13//5
f 13//6 14//6 6//6
f 6//7 14//7 15//7
f 15//8 16//8 8//8
f 16//9 9//9 1//9
g Cylinder_Cylinder_Leafes
usemtl Leafes
f 17//10 19//10 20//10
f 19//11 22//11 20//11
f 22//12 23//12 24//12
f 23//13 26//13 24//13
f 26//14 27//14 28//14
f 27//15 30//15 28//15
f 29//16 25//16 21//16
f 30//17 31//17 32//17
f 31//18 17//18 32//18
f 34//19 36//19 33//19
f 37//20 34//20 33//20
f 40//21 37//21 39//21
f 41//22 40//22 39//22
f 44//23 41//23 43//23
f 45//24 44//24 43//24
f 48//25 45//25 47//25
f 36//26 48//26 47//26
f 50//27 52//27 49//27
f 53//28 50//28 49//28
f 56//29 53//29 55//29
f 57//30 56//30 55//30
f 60//31 57//31 59//31
f 61//32 60//32 59//32
f 63//33 62//33 61//33
f 52//34 64//34 63//34
f 65//35 67//35 68//35
f 69//36 66//37 65//36
f 72//38 69//39 71//39
f 74//40 71//40 73//40
f 75//41 74//41 73//41
f 78//42 75//42 77//42
f 79//43 78//43 77//43
f 67//44 79//44 68//44
f 81//45 83//45 84//45
f 83//46 86//46 84//46
f 85//47 88//47 86//47
f 87//48 90//48 88//48
f 90//49 91//49 92//49
f 91//50 94//50 92//50
f 93//51 96//51 94//51
f 95//52 81//52 96//52
f 98//53 100//53 97//53
f 100//54 101//54 102//54
f 101//55 104//55 102//55
f 103//56 106//56 104//56
f 105//57 108//57 106//57
f 108//58 109//58 110//58
f 109//59 112//59 110//59
f 111//60 97//60 112//60
f 32//1 67//1 66//1
f 30//1 66//1 70//1
f 72//1 30//1 70//1
f 74//1 28//1 72//1
f 24//1 74//1 76//1
f 78//1 24//1 76//1
f 20//1 78//1 80//1
f 67//1 20//1 80//1
f 68//1 64//1 51//1
f 64//1 77//1 62//1
f 77//1 60//1 62//1
f 60//1 73//1 58//1
f 73//1 56//1 58//1
f 56//1 69//1 54//1
f 69//1 50//1 54//1
f 50//1 68//1 51//1
f 52//1 83//1 82//1
f 83//1 61//1 85//1
f 61//1 87//1 85//1
f 87//1 57//1 89//1
f 57//1 91//1 89//1
f 55//1 93//1 91//1
f 93//1 49//1 95//1
f 95//1 52//1 82//1
f 96//1 35//1 34//1
f 94//1 34//1 38//1
f 92//1 38//1 40//1
f 90//1 40//1 42//1
f 88//1 42//1 44//1
f 86//1 44//1 46//1
f 84//1 46//1 48//1
f 81//1 48//1 35//1
f 36//1 99//1 98//1
f 99//1 45//1 101//1
f 45//1 103//1 101//1
f 103//1 41//1 105//1
f 41//1 107//1 105//1
f 39//1 109//1 107//1
f 37//1 111//1 109//1
f 111//1 36//1 98//1
f 112//1 9//1 16//1
f 15//1 112//1 16//1
f 108//1 15//1 14//1
f 13//1 108//1 14//1
f 104//1 13//1 12//1
f 102//1 12//1 11//1
f 100//1 11//1 10//1
f 97//1 10//1 9//1
f 17//10 18//10 19//10
f 19//11 21//11 22//11
f 22//12 21//12 23//12
f 23//13 25//13 26//13
f 26//14 25//14 27//14
f 27//15 29//15 30//15
f 21//16 19//16 18//16
f 18//16 31//16 29//16
f 29//16 27//16 25//16
f 25//16 23//16 21//16
f 21//16 18//16 29//16
f 30//17 29//17 31//17
f 31//18 18//18 17//18
f 34//19 35//19 36//19
f 37//20 38//20 34//20
f 40//21 38//21 37//21
f 41//22 42//22 40//22
f 44//23 42//23 41//23
f 45//24 46//24 44//24
f 48//25 46//25 45//25
f 36//26 35//26 48//26
f 50//27 51//27 52//27
f 53//28 54//28 50//28
f 56//29 54//29 53//29
f 57//30 58//30 56//30
f 60//31 58//31 57//31
f 61//32 62//32 60//32
f 63//33 64//33 62//33
f 52//34 51//34 64//34
f 65//35 66//35 67//35
f 69//36 70//37 66//37
f 72//38 70//38 69//39
f 74//40 72//40 71//40
f 75//41 76//41 74//41
f 78//42 76//42 75//42
f 79//43 80//43 78//43
f 67//44 80//44 79//44
f 81//45 82//45 83//45
f 83//46 85//46 86//46
f 85//47 87//47 88//47
f 87//48 89//48 90//48
f 90//49 89//49 91//49
f 91//50 93//50 94//50
f 93//51 95//51 96//51
f 95//52 82//52 81//52
f 98//53 99//53 100//53
f 100//54 99//54 101//54
f 101//55 103//55 104//55
f 103//56 105//56 106//56
f 105//57 107//57 108//57
f 108//58 107//58 109//58
f 109//59 111//59 112//59
f 111//60 98//60 97//60
f 32//1 17//1 67//1
f 30//1 32//1 66//1
f 72//1 28//1 30//1
f 74//1 26//1 28//1
f 24//1 26//1 74//1
f 78//1 22//1 24//1
f 20//1 22//1 78//1
f 67//1 17//1 20//1
f 68//1 79//1 64//1
f 64//1 79//1 77//1
f 77//1 75//1 60//1
f 60//1 75//1 73//1
f 73//1 71//1 56//1
f 56//1 71//1 69//1
f 69//1 65//1 50//1
f 50//1 65//1 68//1
f 52//1 63//1 83//1
f 83//1 63//1 61//1
f 61//1 59//1 87//1
f 87//1 59//1 57//1
f 57//1 55//1 91//1
f 55//1 53//1 93//1
f 93//1 53//1 49//1
f 95//1 49//1 52//1
f 96//1 81//1 35//1
f 94//1 96//1 34//1
f 92//1 94//1 38//1
f 90//1 92//1 40//1
f 88//1 90//1 42//1
f 86//1 88//1 44//1
f 84//1 86//1 46//1
f 81//1 84//1 48//1
f 36//1 47//1 99//1
f 99//1 47//1 45//1
f 45//1 43//1 103//1
f 103//1 43//1 41//1
f 41//1 39//1 107//1
f 39//1 37//1 109//1
f 37//1 33//1 111//1
f 111//1 33//1 36//1
f 112//1 97//1 9//1
f 15//1 110//1 112//1
f 108//1 110//1 15//1
f 13//1 106//1 108//1
f 104//1 106//1 13//1
f 102//1 104//1 12//1
f 100//1 102//1 11//1
f 97//1 100//1 10//1
