# Blender v2.82 (sub 7) OBJ File: 'low_poly_rock_2.blend'
# www.blender.org
mtllib low_poly_rock_2.mtl
o Icosphere
v 0.000000 -0.116778 -0.000000
v 0.723600 -0.046964 0.525720
v -0.276385 -0.046964 0.850640
v 0.723600 -0.046964 -0.525720
v -0.894425 -0.046964 -0.000000
v -0.276385 -0.046964 -0.850640
v 0.681438 0.847466 0.000000
v 0.276385 0.644449 0.554533
v -0.438717 0.847466 0.525720
v -0.565321 0.381556 -0.525720
v 0.276385 0.847466 -0.580122
v 0.233358 1.087342 0.000000
vn 0.0297 -0.9954 0.0913
vn 0.0960 -0.9954 -0.0000
vn -0.0777 -0.9954 0.0564
vn -0.0777 -0.9954 -0.0564
vn 0.0297 -0.9954 -0.0913
vn 0.9989 0.0471 0.0000
vn 0.3051 0.1582 0.9391
vn -0.8072 0.0666 0.5865
vn -0.8050 -0.0993 -0.5849
vn 0.3076 0.0962 -0.9466
vn 0.6628 0.4024 0.6315
vn 0.0619 0.3507 0.9344
vn -0.8537 0.5064 -0.1216
vn -0.2986 0.4406 -0.8466
vn 0.7677 0.3512 -0.5360
vn 0.3925 0.7333 0.5552
vn 0.1954 0.7737 0.6027
vn -0.5169 0.8040 -0.2940
vn -0.4685 0.8036 -0.3670
vn 0.4483 0.8373 -0.3130
g Icosphere_Icosphere_Stone
usemtl Stone
s 1
f 1//1 2//1 3//1
f 2//2 1//2 4//2
f 1//3 3//3 5//3
f 1//4 5//4 6//4
f 1//5 6//5 4//5
f 2//6 4//6 7//6
f 3//7 2//7 8//7
f 5//8 3//8 9//8
f 6//9 5//9 10//9
f 4//10 6//10 11//10
f 2//11 7//11 8//11
f 3//12 8//12 9//12
f 5//13 9//13 10//13
f 6//14 10//14 11//14
f 4//15 11//15 7//15
f 8//16 7//16 12//16
f 9//17 8//17 12//17
f 10//18 9//18 12//18
f 11//19 10//19 12//19
f 7//20 11//20 12//20
