# Blender v2.82 (sub 7) OBJ File: 'low_poly_cactus.blend'
# www.blender.org
mtllib low_poly_cactus.mtl
o Cylinder
v 0.527735 2.687262 -0.527735
v 0.527735 6.857929 -0.527735
v 0.746330 6.857929 0.000000
v 0.746330 2.687262 0.000000
v 0.527735 2.687262 0.527735
v 0.527735 6.857929 0.527735
v 0.000000 6.857929 0.746330
v 0.000000 2.333704 0.746330
v -0.527735 2.333704 0.527735
v -0.527735 6.857929 0.527735
v -0.746330 6.857929 0.000000
v -0.746330 2.687262 0.000000
v -0.527735 2.687262 -0.527735
v -0.527735 6.857929 -0.527735
v 0.000000 6.857929 -0.746330
v 0.000000 2.687262 -0.746330
v 0.000000 -0.158147 -0.746330
v 0.527735 -0.158147 -0.527735
v 0.746330 -0.158147 -0.000000
v 0.527735 -0.158147 0.527735
v 0.000000 -0.158147 0.746330
v -0.527735 -0.158147 0.527735
v -0.746330 -0.158147 -0.000000
v -0.527735 -0.158147 -0.527735
v -0.527735 1.732296 -0.527735
v 0.000000 1.732296 -0.746330
v -0.527735 1.732296 0.527735
v -0.746330 1.732296 0.000000
v 0.000000 1.732296 0.746330
v -0.343179 1.732296 1.574837
v -0.870914 1.732296 1.356242
v 0.527735 1.732296 0.527735
v 0.746330 1.732296 0.000000
v 2.172112 1.732296 -0.899116
v 2.172112 2.687262 -0.899116
v 0.527735 1.732296 -0.527735
v 1.953517 1.732296 -1.426851
v 1.953517 1.732296 -1.426851
v 2.172112 1.732296 -0.899116
v 1.953517 2.687262 -1.426851
v 2.172112 2.687262 -0.899116
v 2.703497 2.159925 -1.237310
v 2.988583 2.687262 -1.237310
v 1.953517 2.687262 -1.426851
v 2.484902 2.159925 -1.765045
v 2.769988 2.687262 -1.765045
v 2.769988 4.405479 -1.765045
v 2.988583 4.405479 -1.237310
v 1.953517 4.405479 -1.426851
v 2.356472 4.969673 -1.353062
v 2.537232 4.969673 -1.427935
v 2.172112 4.405479 -0.899116
v 2.404867 4.969673 -1.236226
v 2.585628 4.969673 -1.311099
v -0.557162 7.031643 0.000000
v -0.377921 7.031643 0.432726
v -0.159616 7.205356 0.269226
v -0.271134 7.205356 0.000000
v 0.054805 7.031643 0.611967
v 0.487531 7.031643 0.432726
v 0.378837 7.205356 0.269226
v 0.109610 7.205356 0.380744
v 0.666772 7.031643 0.000000
v 0.487531 7.031643 -0.432726
v 0.378837 7.205356 -0.269226
v 0.490354 7.205356 0.000000
v 0.054805 7.031643 -0.611967
v -0.377921 7.031643 -0.432726
v -0.159616 7.205356 -0.269226
v 0.109610 7.205356 -0.380744
v -0.343179 2.333704 1.574837
v -0.506941 2.687262 1.970193
v -0.506941 1.732296 1.970193
v -0.870914 2.333704 1.356242
v -1.034676 2.687262 1.751598
v -1.034676 1.732296 1.751598
v -0.343179 3.453246 1.574837
v -0.506941 3.453246 1.970193
v -0.870914 3.453246 1.356242
v -1.034676 3.453246 1.751598
v -0.798317 3.603112 1.691180
v -0.746505 3.603112 1.566094
v -0.579537 3.603112 1.635255
v -0.631349 3.603112 1.760340
vn 0.9239 0.0000 -0.3827
vn 0.3827 -0.0000 0.9239
vn -0.9239 -0.0000 0.3827
vn -0.3827 0.0000 -0.9239
vn -0.0000 -1.0000 0.0000
vn 0.5334 -0.0000 0.8459
vn 0.0000 0.0000 1.0000
vn -0.5334 0.0000 -0.8459
vn 0.0000 1.0000 0.0000
vn 0.4681 -0.0920 0.8789
vn 0.4594 -0.1029 0.8823
vn 0.3747 -0.2026 0.9047
vn 0.8265 -0.4468 -0.3424
vn 0.5243 -0.8233 -0.2172
vn -0.4681 0.0920 -0.8789
vn -0.4594 0.1029 -0.8823
vn -0.5369 0.0000 -0.8436
vn -0.3560 0.3667 -0.8595
vn 0.7888 0.5206 -0.3267
vn 0.3560 0.3667 0.8595
vn -0.7888 0.5206 0.3267
vn -0.5075 0.8356 0.2102
vn 0.2563 0.7427 0.6187
vn 0.6737 0.6842 -0.2791
vn -0.2277 0.8037 -0.5498
vn -0.2937 0.6411 -0.7090
vn 0.8508 0.3897 -0.3524
vn 0.3290 0.5106 0.7944
vn -0.6513 0.7092 0.2698
vn 0.9239 -0.0000 0.3827
vn -0.9239 0.0000 -0.3827
vn -0.3827 -0.0000 0.9239
vn -0.5625 0.7933 -0.2330
vn 0.3827 0.0000 -0.9239
vn -0.2739 0.6985 0.6612
vn 0.5625 0.7933 0.2330
vn 0.2739 0.6985 -0.6612
vn 0.5369 -0.0000 0.8436
vn -0.3747 0.2026 -0.9047
vn 0.6737 0.6842 0.2791
vn -0.5075 0.8356 -0.2102
vn -0.2277 0.8037 0.5498
vn 0.2563 0.7427 -0.6187
vn 0.3290 0.5106 -0.7944
vn -0.2937 0.6411 0.7090
vn -0.6513 0.7092 -0.2698
vn 0.8508 0.3897 0.3524
g Cylinder_Cylinder_Green1
usemtl Green1
s 1
f 2//1 4//1 1//1
f 5//2 7//2 8//2
f 10//3 12//3 9//3
f 14//4 16//4 13//4
f 22//5 23//5 24//5
f 13//4 26//4 25//4
f 9//3 28//3 27//3
f 29//5 31//5 27//5
f 32//2 8//2 29//2
f 33//6 35//6 4//6
f 36//1 19//1 18//1
f 32//2 21//2 20//2
f 27//3 23//3 22//3
f 25//4 17//4 24//4
f 34//7 38//7 39//7
f 1//8 37//8 36//8
f 1//9 35//9 40//9
f 36//5 34//5 33//5
f 41//10 42//11 43//12
f 37//7 44//7 38//7
f 35//7 39//7 41//7
f 40//7 41//7 44//7
f 46//13 42//13 45//13
f 46//1 48//1 43//1
f 38//14 42//14 39//14
f 44//15 45//16 38//17
f 49//18 51//18 47//18
f 43//2 52//2 41//2
f 41//3 49//3 44//3
f 44//4 47//4 46//4
f 53//9 51//9 50//9
f 47//19 54//19 48//19
f 52//20 54//20 53//20
f 49//21 53//21 50//21
f 56//22 58//22 55//22
f 60//23 62//23 59//23
f 63//24 65//24 66//24
f 67//25 69//25 70//25
f 15//26 68//26 67//26
f 3//27 64//27 63//27
f 6//28 59//28 7//28
f 10//29 55//29 11//29
f 71//30 73//30 30//30
f 9//9 71//9 8//9
f 27//31 74//31 9//31
f 8//30 30//30 29//30
f 72//32 76//32 73//32
f 74//31 76//31 75//31
f 72//30 77//30 78//30
f 30//5 76//5 31//5
f 79//33 81//33 82//33
f 72//32 80//32 75//32
f 75//31 79//31 74//31
f 74//34 77//34 71//34
f 83//9 81//9 84//9
f 78//35 81//35 80//35
f 77//36 84//36 78//36
f 77//37 82//37 83//37
f 2//1 3//1 4//1
f 5//2 6//2 7//2
f 10//3 11//3 12//3
f 14//4 15//4 16//4
f 24//5 17//5 20//5
f 17//5 18//5 20//5
f 18//5 19//5 20//5
f 20//5 21//5 24//5
f 21//5 22//5 24//5
f 13//4 16//4 26//4
f 9//3 12//3 28//3
f 29//5 30//5 31//5
f 32//2 5//2 8//2
f 33//6 34//6 35//6
f 36//1 33//1 19//1
f 32//2 29//2 21//2
f 27//3 28//3 23//3
f 25//4 26//4 17//4
f 34//7 37//7 38//7
f 1//8 40//8 37//8
f 1//9 4//9 35//9
f 36//5 37//5 34//5
f 41//10 39//38 42//11
f 37//7 40//7 44//7
f 35//7 34//7 39//7
f 40//7 35//7 41//7
f 46//13 43//13 42//13
f 46//1 47//1 48//1
f 38//14 45//14 42//14
f 44//15 46//39 45//16
f 49//18 50//18 51//18
f 43//2 48//2 52//2
f 41//3 52//3 49//3
f 44//4 49//4 47//4
f 53//9 54//9 51//9
f 47//19 51//19 54//19
f 52//20 48//20 54//20
f 49//21 52//21 53//21
f 56//22 57//22 58//22
f 60//23 61//23 62//23
f 63//24 64//24 65//24
f 67//25 68//25 69//25
f 15//26 14//26 68//26
f 3//27 2//27 64//27
f 6//28 60//28 59//28
f 10//29 56//29 55//29
f 71//30 72//30 73//30
f 9//9 74//9 71//9
f 27//31 31//31 74//31
f 8//30 71//30 30//30
f 72//32 75//32 76//32
f 74//31 31//31 76//31
f 72//30 71//30 77//30
f 30//5 73//5 76//5
f 79//33 80//33 81//33
f 72//32 78//32 80//32
f 75//31 80//31 79//31
f 74//34 79//34 77//34
f 83//9 82//9 81//9
f 78//35 84//35 81//35
f 77//36 83//36 84//36
f 77//37 79//37 82//37
g Cylinder_Cylinder_Green2
usemtl Green2
f 15//34 1//34 16//34
f 3//30 5//30 4//30
f 7//32 9//32 8//32
f 63//40 61//40 60//40
f 11//31 13//31 12//31
f 12//31 25//31 28//31
f 4//30 32//30 33//30
f 16//34 36//34 26//34
f 26//34 18//34 17//34
f 33//30 20//30 19//30
f 29//32 22//32 21//32
f 28//31 24//31 23//31
f 62//9 61//9 66//9
f 68//41 58//41 69//41
f 59//42 57//42 56//42
f 64//43 70//43 65//43
f 2//44 67//44 64//44
f 7//45 56//45 10//45
f 14//46 55//46 68//46
f 3//47 60//47 6//47
f 15//34 2//34 1//34
f 3//30 6//30 5//30
f 7//32 10//32 9//32
f 63//40 66//40 61//40
f 11//31 14//31 13//31
f 12//31 13//31 25//31
f 4//30 5//30 32//30
f 16//34 1//34 36//34
f 26//34 36//34 18//34
f 33//30 32//30 20//30
f 29//32 27//32 22//32
f 28//31 25//31 24//31
f 66//9 65//9 70//9
f 70//9 69//9 66//9
f 69//9 58//9 66//9
f 58//9 57//9 66//9
f 57//9 62//9 66//9
f 68//41 55//41 58//41
f 59//42 62//42 57//42
f 64//43 67//43 70//43
f 2//44 15//44 67//44
f 7//45 59//45 56//45
f 14//46 11//46 55//46
f 3//47 63//47 60//47
